<svg width="272" height="222" viewBox="0 0 272 222" fill="none" xmlns="http://www.w3.org/2000/svg">
<path d="M104 220.516C63.2138 223.439 40.4187 219.886 0 196.516C35.9028 198.139 54.2465 194.158 82 173.516C51.0384 167.576 40.2168 158.747 31 134.516C40.7968 136.116 46.2072 136.329 55.5 133.516C48.6819 132.205 45.3946 130.885 40 128.016C18.0809 112.132 11.7838 101.144 11 78.0164C20.6953 83.0335 26.158 84.7997 36 85.0164C28.3658 79.4126 25.0948 75.8014 20 69.0164C9.73959 52.0954 8.69134 36.5146 19 10.5164L40 31.5164C70.8591 55.5851 91.3325 64.1348 134.5 69.0164C134.076 33.6338 140.279 18.7249 167.5 4.51639C184.093 -3.64217 204.681 -1.65735 229.5 18.0164C243.776 14.5835 251.629 11.4185 265.5 4.51639C259.233 18.3049 253.925 25.032 241 35.0164C253.295 33.4866 260.072 31.5931 272 26.5164C264.471 39.2061 258.266 45.4702 244.5 55.5164C245.657 80.0984 244.071 93.8069 234.5 118.016C224.122 144.788 214.876 159.328 189.5 184.016C162.022 207.44 143.109 215.166 104 220.516Z" fill="url(#paint0_radial_4_4)"/>
<defs>
<radialGradient id="paint0_radial_4_4" cx="0" cy="0" r="1" gradientUnits="userSpaceOnUse" gradientTransform="translate(136 110.694) rotate(90) scale(110.695 136)">
<stop stop-color="#00A2F5"/>
<stop offset="1" stop-color="#006193"/>
</radialGradient>
</defs>
</svg>
